<mxfile host="app.diagrams.net" modified="2023-09-18T09:47:52.500Z" agent="Mozilla/5.0 (Macintosh; Intel Mac OS X 10_15_7) AppleWebKit/537.36 (KHTML, like Gecko) Chrome/114.0.0.0 Safari/537.36" etag="pBlERCEwcDeLOrhtHIa5" version="21.7.4" type="github">
  <diagram id="R2lEEEUBdFMjLlhIrx00" name="Page-1">
    <mxGraphModel dx="2535" dy="1075" grid="0" gridSize="10" guides="1" tooltips="1" connect="1" arrows="1" fold="1" page="0" pageScale="1" pageWidth="850" pageHeight="1100" math="0" shadow="0" extFonts="Permanent Marker^https://fonts.googleapis.com/css?family=Permanent+Marker">
      <root>
        <mxCell id="0" />
        <mxCell id="1" parent="0" />
        <mxCell id="C-vyLk0tnHw3VtMMgP7b-23" value="Person" style="shape=table;startSize=30;container=1;collapsible=1;childLayout=tableLayout;fixedRows=0;rowLines=0;fontStyle=1;align=center;resizeLast=1;columnLines=0;" parent="1" vertex="1">
          <mxGeometry x="-460" y="120" width="250" height="123.00000000000023" as="geometry" />
        </mxCell>
        <mxCell id="BaDLSpwHCjFPU6KFAHDN-98" style="shape=partialRectangle;collapsible=0;dropTarget=0;pointerEvents=0;fillColor=none;points=[[0,0.5],[1,0.5]];portConstraint=eastwest;top=0;left=0;right=0;bottom=0;" parent="C-vyLk0tnHw3VtMMgP7b-23" vertex="1">
          <mxGeometry y="30" width="250" height="32" as="geometry" />
        </mxCell>
        <mxCell id="BaDLSpwHCjFPU6KFAHDN-99" value="PersonId" style="shape=partialRectangle;overflow=hidden;connectable=0;fillColor=none;top=0;left=0;bottom=0;right=0;fontStyle=4" parent="BaDLSpwHCjFPU6KFAHDN-98" vertex="1">
          <mxGeometry width="170" height="32" as="geometry">
            <mxRectangle width="170" height="32" as="alternateBounds" />
          </mxGeometry>
        </mxCell>
        <mxCell id="BaDLSpwHCjFPU6KFAHDN-100" value="int" style="shape=partialRectangle;overflow=hidden;connectable=0;fillColor=none;top=0;left=0;bottom=0;right=0;align=left;spacingLeft=6;" parent="BaDLSpwHCjFPU6KFAHDN-98" vertex="1">
          <mxGeometry x="170" width="80" height="32" as="geometry">
            <mxRectangle width="80" height="32" as="alternateBounds" />
          </mxGeometry>
        </mxCell>
        <mxCell id="C-vyLk0tnHw3VtMMgP7b-27" value="" style="shape=partialRectangle;collapsible=0;dropTarget=0;pointerEvents=0;fillColor=none;points=[[0,0.5],[1,0.5]];portConstraint=eastwest;top=0;left=0;right=0;bottom=0;" parent="C-vyLk0tnHw3VtMMgP7b-23" vertex="1">
          <mxGeometry y="62" width="250" height="28" as="geometry" />
        </mxCell>
        <mxCell id="C-vyLk0tnHw3VtMMgP7b-28" value="LastName" style="shape=partialRectangle;overflow=hidden;connectable=0;fillColor=none;top=0;left=0;bottom=0;right=0;" parent="C-vyLk0tnHw3VtMMgP7b-27" vertex="1">
          <mxGeometry width="170" height="28" as="geometry">
            <mxRectangle width="170" height="28" as="alternateBounds" />
          </mxGeometry>
        </mxCell>
        <mxCell id="C-vyLk0tnHw3VtMMgP7b-29" value="name" style="shape=partialRectangle;overflow=hidden;connectable=0;fillColor=none;top=0;left=0;bottom=0;right=0;align=left;spacingLeft=6;" parent="C-vyLk0tnHw3VtMMgP7b-27" vertex="1">
          <mxGeometry x="170" width="80" height="28" as="geometry">
            <mxRectangle width="80" height="28" as="alternateBounds" />
          </mxGeometry>
        </mxCell>
        <mxCell id="BaDLSpwHCjFPU6KFAHDN-8" style="shape=partialRectangle;collapsible=0;dropTarget=0;pointerEvents=0;fillColor=none;points=[[0,0.5],[1,0.5]];portConstraint=eastwest;top=0;left=0;right=0;bottom=0;" parent="C-vyLk0tnHw3VtMMgP7b-23" vertex="1">
          <mxGeometry y="90" width="250" height="33" as="geometry" />
        </mxCell>
        <mxCell id="BaDLSpwHCjFPU6KFAHDN-9" value="FirstName" style="shape=partialRectangle;overflow=hidden;connectable=0;fillColor=none;top=0;left=0;bottom=0;right=0;" parent="BaDLSpwHCjFPU6KFAHDN-8" vertex="1">
          <mxGeometry width="170" height="33" as="geometry">
            <mxRectangle width="170" height="33" as="alternateBounds" />
          </mxGeometry>
        </mxCell>
        <mxCell id="BaDLSpwHCjFPU6KFAHDN-10" value="name" style="shape=partialRectangle;overflow=hidden;connectable=0;fillColor=none;top=0;left=0;bottom=0;right=0;align=left;spacingLeft=6;" parent="BaDLSpwHCjFPU6KFAHDN-8" vertex="1">
          <mxGeometry x="170" width="80" height="33" as="geometry">
            <mxRectangle width="80" height="33" as="alternateBounds" />
          </mxGeometry>
        </mxCell>
        <mxCell id="BaDLSpwHCjFPU6KFAHDN-14" value="Discipline" style="shape=table;startSize=30;container=1;collapsible=1;childLayout=tableLayout;fixedRows=1;rowLines=0;fontStyle=1;align=center;resizeLast=1;strokeColor=default;perimeterSpacing=1;strokeWidth=1;swimlaneLine=1;columnLines=0;rounded=0;" parent="1" vertex="1">
          <mxGeometry x="80" y="820" width="330" height="183.00000000000057" as="geometry" />
        </mxCell>
        <mxCell id="BaDLSpwHCjFPU6KFAHDN-15" value="" style="shape=partialRectangle;collapsible=0;dropTarget=0;pointerEvents=0;fillColor=none;points=[[0,0.5],[1,0.5]];portConstraint=eastwest;top=0;left=0;right=0;bottom=0;strokeColor=inherit;" parent="BaDLSpwHCjFPU6KFAHDN-14" vertex="1">
          <mxGeometry y="30" width="330" height="48" as="geometry" />
        </mxCell>
        <mxCell id="BaDLSpwHCjFPU6KFAHDN-16" value="DisciplineId" style="shape=partialRectangle;overflow=hidden;connectable=0;fillColor=none;top=0;left=0;bottom=0;right=0;fontStyle=4;strokeColor=inherit;strokeWidth=0;" parent="BaDLSpwHCjFPU6KFAHDN-15" vertex="1">
          <mxGeometry width="170" height="48" as="geometry">
            <mxRectangle width="170" height="48" as="alternateBounds" />
          </mxGeometry>
        </mxCell>
        <mxCell id="BaDLSpwHCjFPU6KFAHDN-17" value="id" style="shape=partialRectangle;overflow=hidden;connectable=0;fillColor=none;top=0;left=0;bottom=0;right=0;align=left;spacingLeft=6;fontStyle=0;strokeColor=inherit;" parent="BaDLSpwHCjFPU6KFAHDN-15" vertex="1">
          <mxGeometry x="170" width="120" height="48" as="geometry">
            <mxRectangle width="120" height="48" as="alternateBounds" />
          </mxGeometry>
        </mxCell>
        <mxCell id="BaDLSpwHCjFPU6KFAHDN-108" style="shape=partialRectangle;overflow=hidden;connectable=0;fillColor=none;top=0;left=0;bottom=0;right=0;align=left;spacingLeft=6;fontStyle=0;strokeColor=inherit;" parent="BaDLSpwHCjFPU6KFAHDN-15" vertex="1">
          <mxGeometry x="290" width="40" height="48" as="geometry">
            <mxRectangle width="40" height="48" as="alternateBounds" />
          </mxGeometry>
        </mxCell>
        <mxCell id="BaDLSpwHCjFPU6KFAHDN-18" value="" style="shape=partialRectangle;collapsible=0;dropTarget=0;pointerEvents=0;fillColor=none;points=[[0,0.5],[1,0.5]];portConstraint=eastwest;top=0;left=0;right=0;bottom=0;" parent="BaDLSpwHCjFPU6KFAHDN-14" vertex="1">
          <mxGeometry y="78" width="330" height="35" as="geometry" />
        </mxCell>
        <mxCell id="BaDLSpwHCjFPU6KFAHDN-19" value="DisciplineName" style="shape=partialRectangle;overflow=hidden;connectable=0;fillColor=none;top=0;left=0;bottom=0;right=0;strokeColor=inherit;" parent="BaDLSpwHCjFPU6KFAHDN-18" vertex="1">
          <mxGeometry width="170" height="35" as="geometry">
            <mxRectangle width="170" height="35" as="alternateBounds" />
          </mxGeometry>
        </mxCell>
        <mxCell id="BaDLSpwHCjFPU6KFAHDN-20" value="discipline_name" style="shape=partialRectangle;overflow=hidden;connectable=0;fillColor=none;top=0;left=0;bottom=0;right=0;align=left;spacingLeft=6;perimeterSpacing=4;strokeColor=default;strokeWidth=0;" parent="BaDLSpwHCjFPU6KFAHDN-18" vertex="1">
          <mxGeometry x="170" width="120" height="35" as="geometry">
            <mxRectangle width="120" height="35" as="alternateBounds" />
          </mxGeometry>
        </mxCell>
        <mxCell id="BaDLSpwHCjFPU6KFAHDN-109" value="K1" style="shape=partialRectangle;overflow=hidden;connectable=0;fillColor=none;top=0;left=0;bottom=0;right=0;align=left;spacingLeft=6;perimeterSpacing=4;strokeColor=default;strokeWidth=0;" parent="BaDLSpwHCjFPU6KFAHDN-18" vertex="1">
          <mxGeometry x="290" width="40" height="35" as="geometry">
            <mxRectangle width="40" height="35" as="alternateBounds" />
          </mxGeometry>
        </mxCell>
        <mxCell id="BaDLSpwHCjFPU6KFAHDN-105" style="shape=partialRectangle;collapsible=0;dropTarget=0;pointerEvents=0;fillColor=none;points=[[0,0.5],[1,0.5]];portConstraint=eastwest;top=0;left=0;right=0;bottom=0;" parent="BaDLSpwHCjFPU6KFAHDN-14" vertex="1">
          <mxGeometry y="113" width="330" height="35" as="geometry" />
        </mxCell>
        <mxCell id="BaDLSpwHCjFPU6KFAHDN-106" value="Hours" style="shape=partialRectangle;overflow=hidden;connectable=0;fillColor=none;top=0;left=0;bottom=0;right=0;strokeColor=inherit;" parent="BaDLSpwHCjFPU6KFAHDN-105" vertex="1">
          <mxGeometry width="170" height="35" as="geometry">
            <mxRectangle width="170" height="35" as="alternateBounds" />
          </mxGeometry>
        </mxCell>
        <mxCell id="BaDLSpwHCjFPU6KFAHDN-107" value="discipline_hours" style="shape=partialRectangle;overflow=hidden;connectable=0;fillColor=none;top=0;left=0;bottom=0;right=0;align=left;spacingLeft=6;perimeterSpacing=4;strokeColor=default;strokeWidth=0;" parent="BaDLSpwHCjFPU6KFAHDN-105" vertex="1">
          <mxGeometry x="170" width="120" height="35" as="geometry">
            <mxRectangle width="120" height="35" as="alternateBounds" />
          </mxGeometry>
        </mxCell>
        <mxCell id="BaDLSpwHCjFPU6KFAHDN-110" style="shape=partialRectangle;overflow=hidden;connectable=0;fillColor=none;top=0;left=0;bottom=0;right=0;align=left;spacingLeft=6;perimeterSpacing=4;strokeColor=default;strokeWidth=0;" parent="BaDLSpwHCjFPU6KFAHDN-105" vertex="1">
          <mxGeometry x="290" width="40" height="35" as="geometry">
            <mxRectangle width="40" height="35" as="alternateBounds" />
          </mxGeometry>
        </mxCell>
        <mxCell id="BaDLSpwHCjFPU6KFAHDN-137" style="shape=partialRectangle;collapsible=0;dropTarget=0;pointerEvents=0;fillColor=none;points=[[0,0.5],[1,0.5]];portConstraint=eastwest;top=0;left=0;right=0;bottom=0;" parent="BaDLSpwHCjFPU6KFAHDN-14" vertex="1">
          <mxGeometry y="148" width="330" height="35" as="geometry" />
        </mxCell>
        <mxCell id="BaDLSpwHCjFPU6KFAHDN-138" value="Aim" style="shape=partialRectangle;overflow=hidden;connectable=0;fillColor=none;top=0;left=0;bottom=0;right=0;strokeColor=inherit;" parent="BaDLSpwHCjFPU6KFAHDN-137" vertex="1">
          <mxGeometry width="170" height="35" as="geometry">
            <mxRectangle width="170" height="35" as="alternateBounds" />
          </mxGeometry>
        </mxCell>
        <mxCell id="BaDLSpwHCjFPU6KFAHDN-139" value="discipline_text" style="shape=partialRectangle;overflow=hidden;connectable=0;fillColor=none;top=0;left=0;bottom=0;right=0;align=left;spacingLeft=6;perimeterSpacing=4;strokeColor=default;strokeWidth=0;" parent="BaDLSpwHCjFPU6KFAHDN-137" vertex="1">
          <mxGeometry x="170" width="120" height="35" as="geometry">
            <mxRectangle width="120" height="35" as="alternateBounds" />
          </mxGeometry>
        </mxCell>
        <mxCell id="BaDLSpwHCjFPU6KFAHDN-140" style="shape=partialRectangle;overflow=hidden;connectable=0;fillColor=none;top=0;left=0;bottom=0;right=0;align=left;spacingLeft=6;perimeterSpacing=4;strokeColor=default;strokeWidth=0;" parent="BaDLSpwHCjFPU6KFAHDN-137" vertex="1">
          <mxGeometry x="290" width="40" height="35" as="geometry">
            <mxRectangle width="40" height="35" as="alternateBounds" />
          </mxGeometry>
        </mxCell>
        <mxCell id="BaDLSpwHCjFPU6KFAHDN-27" value="Group" style="shape=table;startSize=30;container=1;collapsible=1;childLayout=tableLayout;fixedRows=0;rowLines=0;fontStyle=1;align=center;resizeLast=1;columnLines=0;" parent="1" vertex="1">
          <mxGeometry x="-420" y="540" width="250" height="70" as="geometry" />
        </mxCell>
        <mxCell id="BaDLSpwHCjFPU6KFAHDN-28" value="" style="shape=partialRectangle;collapsible=0;dropTarget=0;pointerEvents=0;fillColor=none;points=[[0,0.5],[1,0.5]];portConstraint=eastwest;top=0;left=0;right=0;bottom=1;" parent="BaDLSpwHCjFPU6KFAHDN-27" vertex="1">
          <mxGeometry y="30" width="250" height="40" as="geometry" />
        </mxCell>
        <mxCell id="BaDLSpwHCjFPU6KFAHDN-29" value="GroupName" style="shape=partialRectangle;overflow=hidden;connectable=0;fillColor=none;top=0;left=0;bottom=0;right=0;fontStyle=4;" parent="BaDLSpwHCjFPU6KFAHDN-28" vertex="1">
          <mxGeometry width="150" height="40" as="geometry">
            <mxRectangle width="150" height="40" as="alternateBounds" />
          </mxGeometry>
        </mxCell>
        <mxCell id="BaDLSpwHCjFPU6KFAHDN-30" value="group_name" style="shape=partialRectangle;overflow=hidden;connectable=0;fillColor=none;top=0;left=0;bottom=0;right=0;align=left;spacingLeft=6;fontStyle=0;" parent="BaDLSpwHCjFPU6KFAHDN-28" vertex="1">
          <mxGeometry x="150" width="100" height="40" as="geometry">
            <mxRectangle width="100" height="40" as="alternateBounds" />
          </mxGeometry>
        </mxCell>
        <mxCell id="CnCBfWLQsgVYcmkU2KY1-38" style="edgeStyle=orthogonalEdgeStyle;rounded=0;orthogonalLoop=1;jettySize=auto;html=1;entryX=0.413;entryY=0.009;entryDx=0;entryDy=0;entryPerimeter=0;" edge="1" parent="1" source="BaDLSpwHCjFPU6KFAHDN-53" target="BaDLSpwHCjFPU6KFAHDN-124">
          <mxGeometry relative="1" as="geometry" />
        </mxCell>
        <mxCell id="CnCBfWLQsgVYcmkU2KY1-43" value="FK2" style="edgeLabel;html=1;align=center;verticalAlign=middle;resizable=0;points=[];" vertex="1" connectable="0" parent="CnCBfWLQsgVYcmkU2KY1-38">
          <mxGeometry x="-0.1182" relative="1" as="geometry">
            <mxPoint as="offset" />
          </mxGeometry>
        </mxCell>
        <mxCell id="BaDLSpwHCjFPU6KFAHDN-53" value="Grade" style="shape=table;startSize=30;container=1;collapsible=1;childLayout=tableLayout;fixedRows=1;rowLines=0;fontStyle=1;align=center;resizeLast=1;rounded=0;columnLines=0;" parent="1" vertex="1">
          <mxGeometry x="90" y="290" width="330" height="160" as="geometry" />
        </mxCell>
        <mxCell id="CnCBfWLQsgVYcmkU2KY1-31" style="shape=partialRectangle;collapsible=0;dropTarget=0;pointerEvents=0;fillColor=none;points=[[0,0.5],[1,0.5]];portConstraint=eastwest;top=0;left=0;right=0;bottom=0;" vertex="1" parent="BaDLSpwHCjFPU6KFAHDN-53">
          <mxGeometry y="30" width="330" height="30" as="geometry" />
        </mxCell>
        <mxCell id="CnCBfWLQsgVYcmkU2KY1-32" value="StudentId" style="shape=partialRectangle;overflow=hidden;connectable=0;fillColor=none;top=0;left=0;bottom=0;right=0;fontStyle=4" vertex="1" parent="CnCBfWLQsgVYcmkU2KY1-31">
          <mxGeometry width="170" height="30" as="geometry">
            <mxRectangle width="170" height="30" as="alternateBounds" />
          </mxGeometry>
        </mxCell>
        <mxCell id="CnCBfWLQsgVYcmkU2KY1-33" value="int" style="shape=partialRectangle;overflow=hidden;connectable=0;fillColor=none;top=0;left=0;bottom=0;right=0;align=left;spacingLeft=6;" vertex="1" parent="CnCBfWLQsgVYcmkU2KY1-31">
          <mxGeometry x="170" width="80" height="30" as="geometry">
            <mxRectangle width="80" height="30" as="alternateBounds" />
          </mxGeometry>
        </mxCell>
        <mxCell id="CnCBfWLQsgVYcmkU2KY1-39" value="FK1" style="shape=partialRectangle;overflow=hidden;connectable=0;fillColor=none;top=0;left=0;bottom=0;right=0;align=left;spacingLeft=6;" vertex="1" parent="CnCBfWLQsgVYcmkU2KY1-31">
          <mxGeometry x="250" width="80" height="30" as="geometry">
            <mxRectangle width="80" height="30" as="alternateBounds" />
          </mxGeometry>
        </mxCell>
        <mxCell id="CnCBfWLQsgVYcmkU2KY1-28" style="shape=partialRectangle;collapsible=0;dropTarget=0;pointerEvents=0;fillColor=none;points=[[0,0.5],[1,0.5]];portConstraint=eastwest;top=0;left=0;right=0;bottom=0;" vertex="1" parent="BaDLSpwHCjFPU6KFAHDN-53">
          <mxGeometry y="60" width="330" height="30" as="geometry" />
        </mxCell>
        <mxCell id="CnCBfWLQsgVYcmkU2KY1-29" value="CourseId" style="shape=partialRectangle;overflow=hidden;connectable=0;fillColor=none;top=0;left=0;bottom=0;right=0;fontStyle=4" vertex="1" parent="CnCBfWLQsgVYcmkU2KY1-28">
          <mxGeometry width="170" height="30" as="geometry">
            <mxRectangle width="170" height="30" as="alternateBounds" />
          </mxGeometry>
        </mxCell>
        <mxCell id="CnCBfWLQsgVYcmkU2KY1-30" value="int" style="shape=partialRectangle;overflow=hidden;connectable=0;fillColor=none;top=0;left=0;bottom=0;right=0;align=left;spacingLeft=6;" vertex="1" parent="CnCBfWLQsgVYcmkU2KY1-28">
          <mxGeometry x="170" width="80" height="30" as="geometry">
            <mxRectangle width="80" height="30" as="alternateBounds" />
          </mxGeometry>
        </mxCell>
        <mxCell id="CnCBfWLQsgVYcmkU2KY1-40" value="FK2" style="shape=partialRectangle;overflow=hidden;connectable=0;fillColor=none;top=0;left=0;bottom=0;right=0;align=left;spacingLeft=6;" vertex="1" parent="CnCBfWLQsgVYcmkU2KY1-28">
          <mxGeometry x="250" width="80" height="30" as="geometry">
            <mxRectangle width="80" height="30" as="alternateBounds" />
          </mxGeometry>
        </mxCell>
        <mxCell id="BaDLSpwHCjFPU6KFAHDN-57" value="" style="shape=partialRectangle;collapsible=0;dropTarget=0;pointerEvents=0;fillColor=none;points=[[0,0.5],[1,0.5]];portConstraint=eastwest;top=0;left=0;right=0;bottom=0;" parent="BaDLSpwHCjFPU6KFAHDN-53" vertex="1">
          <mxGeometry y="90" width="330" height="30" as="geometry" />
        </mxCell>
        <mxCell id="BaDLSpwHCjFPU6KFAHDN-58" value="GradeValue" style="shape=partialRectangle;overflow=hidden;connectable=0;fillColor=none;top=0;left=0;bottom=0;right=0;" parent="BaDLSpwHCjFPU6KFAHDN-57" vertex="1">
          <mxGeometry width="170" height="30" as="geometry">
            <mxRectangle width="170" height="30" as="alternateBounds" />
          </mxGeometry>
        </mxCell>
        <mxCell id="BaDLSpwHCjFPU6KFAHDN-59" value="int" style="shape=partialRectangle;overflow=hidden;connectable=0;fillColor=none;top=0;left=0;bottom=0;right=0;align=left;spacingLeft=6;" parent="BaDLSpwHCjFPU6KFAHDN-57" vertex="1">
          <mxGeometry x="170" width="80" height="30" as="geometry">
            <mxRectangle width="80" height="30" as="alternateBounds" />
          </mxGeometry>
        </mxCell>
        <mxCell id="CnCBfWLQsgVYcmkU2KY1-41" style="shape=partialRectangle;overflow=hidden;connectable=0;fillColor=none;top=0;left=0;bottom=0;right=0;align=left;spacingLeft=6;" vertex="1" parent="BaDLSpwHCjFPU6KFAHDN-57">
          <mxGeometry x="250" width="80" height="30" as="geometry">
            <mxRectangle width="80" height="30" as="alternateBounds" />
          </mxGeometry>
        </mxCell>
        <mxCell id="BaDLSpwHCjFPU6KFAHDN-80" style="shape=partialRectangle;collapsible=0;dropTarget=0;pointerEvents=0;fillColor=none;points=[[0,0.5],[1,0.5]];portConstraint=eastwest;top=0;left=0;right=0;bottom=0;" parent="BaDLSpwHCjFPU6KFAHDN-53" vertex="1">
          <mxGeometry y="120" width="330" height="30" as="geometry" />
        </mxCell>
        <mxCell id="BaDLSpwHCjFPU6KFAHDN-81" value="GradeTime" style="shape=partialRectangle;overflow=hidden;connectable=0;fillColor=none;top=0;left=0;bottom=0;right=0;" parent="BaDLSpwHCjFPU6KFAHDN-80" vertex="1">
          <mxGeometry width="170" height="30" as="geometry">
            <mxRectangle width="170" height="30" as="alternateBounds" />
          </mxGeometry>
        </mxCell>
        <mxCell id="BaDLSpwHCjFPU6KFAHDN-82" value="datetime" style="shape=partialRectangle;overflow=hidden;connectable=0;fillColor=none;top=0;left=0;bottom=0;right=0;align=left;spacingLeft=6;" parent="BaDLSpwHCjFPU6KFAHDN-80" vertex="1">
          <mxGeometry x="170" width="80" height="30" as="geometry">
            <mxRectangle width="80" height="30" as="alternateBounds" />
          </mxGeometry>
        </mxCell>
        <mxCell id="CnCBfWLQsgVYcmkU2KY1-42" style="shape=partialRectangle;overflow=hidden;connectable=0;fillColor=none;top=0;left=0;bottom=0;right=0;align=left;spacingLeft=6;" vertex="1" parent="BaDLSpwHCjFPU6KFAHDN-80">
          <mxGeometry x="250" width="80" height="30" as="geometry">
            <mxRectangle width="80" height="30" as="alternateBounds" />
          </mxGeometry>
        </mxCell>
        <mxCell id="BaDLSpwHCjFPU6KFAHDN-60" style="edgeStyle=orthogonalEdgeStyle;curved=1;rounded=0;orthogonalLoop=1;jettySize=auto;html=1;exitX=1;exitY=0.5;exitDx=0;exitDy=0;entryX=0.007;entryY=0.924;entryDx=0;entryDy=0;endArrow=ERzeroToOne;endFill=0;startArrow=ERone;startFill=0;entryPerimeter=0;" parent="1" target="BaDLSpwHCjFPU6KFAHDN-57" edge="1">
          <mxGeometry relative="1" as="geometry" />
        </mxCell>
        <mxCell id="BaDLSpwHCjFPU6KFAHDN-61" value="Student" style="edgeLabel;html=1;align=center;verticalAlign=middle;resizable=0;points=[];" parent="BaDLSpwHCjFPU6KFAHDN-60" vertex="1" connectable="0">
          <mxGeometry x="-0.7628" y="-1" relative="1" as="geometry">
            <mxPoint x="4" as="offset" />
          </mxGeometry>
        </mxCell>
        <mxCell id="BaDLSpwHCjFPU6KFAHDN-63" value="grade" style="edgeLabel;html=1;align=center;verticalAlign=middle;resizable=0;points=[];" parent="BaDLSpwHCjFPU6KFAHDN-60" vertex="1" connectable="0">
          <mxGeometry x="0.8399" y="-2" relative="1" as="geometry">
            <mxPoint x="-22" as="offset" />
          </mxGeometry>
        </mxCell>
        <mxCell id="BaDLSpwHCjFPU6KFAHDN-78" value="has" style="edgeLabel;html=1;align=center;verticalAlign=middle;resizable=0;points=[];" parent="BaDLSpwHCjFPU6KFAHDN-60" vertex="1" connectable="0">
          <mxGeometry x="0.0091" y="1" relative="1" as="geometry">
            <mxPoint as="offset" />
          </mxGeometry>
        </mxCell>
        <mxCell id="CnCBfWLQsgVYcmkU2KY1-35" style="edgeStyle=orthogonalEdgeStyle;rounded=0;orthogonalLoop=1;jettySize=auto;html=1;entryX=0.5;entryY=0;entryDx=0;entryDy=0;" edge="1" parent="1" source="BaDLSpwHCjFPU6KFAHDN-124" target="BaDLSpwHCjFPU6KFAHDN-14">
          <mxGeometry relative="1" as="geometry" />
        </mxCell>
        <mxCell id="CnCBfWLQsgVYcmkU2KY1-36" value="FK3" style="edgeLabel;html=1;align=center;verticalAlign=middle;resizable=0;points=[];" vertex="1" connectable="0" parent="CnCBfWLQsgVYcmkU2KY1-35">
          <mxGeometry x="0.0011" y="-2" relative="1" as="geometry">
            <mxPoint as="offset" />
          </mxGeometry>
        </mxCell>
        <mxCell id="BaDLSpwHCjFPU6KFAHDN-124" value="Course" style="shape=table;startSize=30;container=1;collapsible=1;childLayout=tableLayout;fixedRows=1;rowLines=0;fontStyle=1;align=center;resizeLast=1;strokeColor=default;perimeterSpacing=1;strokeWidth=1;swimlaneLine=1;columnLines=0;rounded=0;" parent="1" vertex="1">
          <mxGeometry x="70" y="490" width="350" height="245" as="geometry" />
        </mxCell>
        <mxCell id="BaDLSpwHCjFPU6KFAHDN-167" style="shape=partialRectangle;collapsible=0;dropTarget=0;pointerEvents=0;fillColor=none;points=[[0,0.5],[1,0.5]];portConstraint=eastwest;top=0;left=0;right=0;bottom=0;" parent="BaDLSpwHCjFPU6KFAHDN-124" vertex="1">
          <mxGeometry y="30" width="350" height="40" as="geometry" />
        </mxCell>
        <mxCell id="BaDLSpwHCjFPU6KFAHDN-168" value="CourseId" style="shape=partialRectangle;overflow=hidden;connectable=0;fillColor=none;top=0;left=0;bottom=0;right=0;strokeColor=inherit;fontStyle=4" parent="BaDLSpwHCjFPU6KFAHDN-167" vertex="1">
          <mxGeometry width="170" height="40" as="geometry">
            <mxRectangle width="170" height="40" as="alternateBounds" />
          </mxGeometry>
        </mxCell>
        <mxCell id="BaDLSpwHCjFPU6KFAHDN-169" value="int" style="shape=partialRectangle;overflow=hidden;connectable=0;fillColor=none;top=0;left=0;bottom=0;right=0;align=left;spacingLeft=6;perimeterSpacing=4;strokeColor=default;strokeWidth=0;" parent="BaDLSpwHCjFPU6KFAHDN-167" vertex="1">
          <mxGeometry x="170" width="50" height="40" as="geometry">
            <mxRectangle width="50" height="40" as="alternateBounds" />
          </mxGeometry>
        </mxCell>
        <mxCell id="CnCBfWLQsgVYcmkU2KY1-13" style="shape=partialRectangle;overflow=hidden;connectable=0;fillColor=none;top=0;left=0;bottom=0;right=0;align=left;spacingLeft=6;perimeterSpacing=4;strokeColor=default;strokeWidth=0;" vertex="1" parent="BaDLSpwHCjFPU6KFAHDN-167">
          <mxGeometry x="220" width="130" height="40" as="geometry">
            <mxRectangle width="130" height="40" as="alternateBounds" />
          </mxGeometry>
        </mxCell>
        <mxCell id="BaDLSpwHCjFPU6KFAHDN-129" value="" style="shape=partialRectangle;collapsible=0;dropTarget=0;pointerEvents=0;fillColor=none;points=[[0,0.5],[1,0.5]];portConstraint=eastwest;top=0;left=0;right=0;bottom=0;" parent="BaDLSpwHCjFPU6KFAHDN-124" vertex="1">
          <mxGeometry y="70" width="350" height="35" as="geometry" />
        </mxCell>
        <mxCell id="BaDLSpwHCjFPU6KFAHDN-130" value="Year" style="shape=partialRectangle;overflow=hidden;connectable=0;fillColor=none;top=0;left=0;bottom=0;right=0;strokeColor=inherit;" parent="BaDLSpwHCjFPU6KFAHDN-129" vertex="1">
          <mxGeometry width="170" height="35" as="geometry">
            <mxRectangle width="170" height="35" as="alternateBounds" />
          </mxGeometry>
        </mxCell>
        <mxCell id="BaDLSpwHCjFPU6KFAHDN-131" value="int" style="shape=partialRectangle;overflow=hidden;connectable=0;fillColor=none;top=0;left=0;bottom=0;right=0;align=left;spacingLeft=6;perimeterSpacing=4;strokeColor=default;strokeWidth=0;" parent="BaDLSpwHCjFPU6KFAHDN-129" vertex="1">
          <mxGeometry x="170" width="50" height="35" as="geometry">
            <mxRectangle width="50" height="35" as="alternateBounds" />
          </mxGeometry>
        </mxCell>
        <mxCell id="CnCBfWLQsgVYcmkU2KY1-14" style="shape=partialRectangle;overflow=hidden;connectable=0;fillColor=none;top=0;left=0;bottom=0;right=0;align=left;spacingLeft=6;perimeterSpacing=4;strokeColor=default;strokeWidth=0;" vertex="1" parent="BaDLSpwHCjFPU6KFAHDN-129">
          <mxGeometry x="220" width="130" height="35" as="geometry">
            <mxRectangle width="130" height="35" as="alternateBounds" />
          </mxGeometry>
        </mxCell>
        <mxCell id="BaDLSpwHCjFPU6KFAHDN-133" style="shape=partialRectangle;collapsible=0;dropTarget=0;pointerEvents=0;fillColor=none;points=[[0,0.5],[1,0.5]];portConstraint=eastwest;top=0;left=0;right=0;bottom=0;" parent="BaDLSpwHCjFPU6KFAHDN-124" vertex="1">
          <mxGeometry y="105" width="350" height="35" as="geometry" />
        </mxCell>
        <mxCell id="BaDLSpwHCjFPU6KFAHDN-134" value="Semester" style="shape=partialRectangle;overflow=hidden;connectable=0;fillColor=none;top=0;left=0;bottom=0;right=0;strokeColor=inherit;" parent="BaDLSpwHCjFPU6KFAHDN-133" vertex="1">
          <mxGeometry width="170" height="35" as="geometry">
            <mxRectangle width="170" height="35" as="alternateBounds" />
          </mxGeometry>
        </mxCell>
        <mxCell id="BaDLSpwHCjFPU6KFAHDN-135" value="int" style="shape=partialRectangle;overflow=hidden;connectable=0;fillColor=none;top=0;left=0;bottom=0;right=0;align=left;spacingLeft=6;perimeterSpacing=4;strokeColor=default;strokeWidth=0;" parent="BaDLSpwHCjFPU6KFAHDN-133" vertex="1">
          <mxGeometry x="170" width="50" height="35" as="geometry">
            <mxRectangle width="50" height="35" as="alternateBounds" />
          </mxGeometry>
        </mxCell>
        <mxCell id="CnCBfWLQsgVYcmkU2KY1-15" style="shape=partialRectangle;overflow=hidden;connectable=0;fillColor=none;top=0;left=0;bottom=0;right=0;align=left;spacingLeft=6;perimeterSpacing=4;strokeColor=default;strokeWidth=0;" vertex="1" parent="BaDLSpwHCjFPU6KFAHDN-133">
          <mxGeometry x="220" width="130" height="35" as="geometry">
            <mxRectangle width="130" height="35" as="alternateBounds" />
          </mxGeometry>
        </mxCell>
        <mxCell id="CnCBfWLQsgVYcmkU2KY1-7" style="shape=partialRectangle;collapsible=0;dropTarget=0;pointerEvents=0;fillColor=none;points=[[0,0.5],[1,0.5]];portConstraint=eastwest;top=0;left=0;right=0;bottom=0;" vertex="1" parent="BaDLSpwHCjFPU6KFAHDN-124">
          <mxGeometry y="140" width="350" height="35" as="geometry" />
        </mxCell>
        <mxCell id="CnCBfWLQsgVYcmkU2KY1-8" value="GroupId" style="shape=partialRectangle;overflow=hidden;connectable=0;fillColor=none;top=0;left=0;bottom=0;right=0;strokeColor=inherit;" vertex="1" parent="CnCBfWLQsgVYcmkU2KY1-7">
          <mxGeometry width="170" height="35" as="geometry">
            <mxRectangle width="170" height="35" as="alternateBounds" />
          </mxGeometry>
        </mxCell>
        <mxCell id="CnCBfWLQsgVYcmkU2KY1-9" value="int" style="shape=partialRectangle;overflow=hidden;connectable=0;fillColor=none;top=0;left=0;bottom=0;right=0;align=left;spacingLeft=6;perimeterSpacing=4;strokeColor=default;strokeWidth=0;" vertex="1" parent="CnCBfWLQsgVYcmkU2KY1-7">
          <mxGeometry x="170" width="50" height="35" as="geometry">
            <mxRectangle width="50" height="35" as="alternateBounds" />
          </mxGeometry>
        </mxCell>
        <mxCell id="CnCBfWLQsgVYcmkU2KY1-16" value="FK1" style="shape=partialRectangle;overflow=hidden;connectable=0;fillColor=none;top=0;left=0;bottom=0;right=0;align=left;spacingLeft=6;perimeterSpacing=4;strokeColor=default;strokeWidth=0;" vertex="1" parent="CnCBfWLQsgVYcmkU2KY1-7">
          <mxGeometry x="220" width="130" height="35" as="geometry">
            <mxRectangle width="130" height="35" as="alternateBounds" />
          </mxGeometry>
        </mxCell>
        <mxCell id="CnCBfWLQsgVYcmkU2KY1-10" style="shape=partialRectangle;collapsible=0;dropTarget=0;pointerEvents=0;fillColor=none;points=[[0,0.5],[1,0.5]];portConstraint=eastwest;top=0;left=0;right=0;bottom=0;" vertex="1" parent="BaDLSpwHCjFPU6KFAHDN-124">
          <mxGeometry y="175" width="350" height="35" as="geometry" />
        </mxCell>
        <mxCell id="CnCBfWLQsgVYcmkU2KY1-11" value="TeacherId" style="shape=partialRectangle;overflow=hidden;connectable=0;fillColor=none;top=0;left=0;bottom=0;right=0;strokeColor=inherit;" vertex="1" parent="CnCBfWLQsgVYcmkU2KY1-10">
          <mxGeometry width="170" height="35" as="geometry">
            <mxRectangle width="170" height="35" as="alternateBounds" />
          </mxGeometry>
        </mxCell>
        <mxCell id="CnCBfWLQsgVYcmkU2KY1-12" value="int" style="shape=partialRectangle;overflow=hidden;connectable=0;fillColor=none;top=0;left=0;bottom=0;right=0;align=left;spacingLeft=6;perimeterSpacing=4;strokeColor=default;strokeWidth=0;" vertex="1" parent="CnCBfWLQsgVYcmkU2KY1-10">
          <mxGeometry x="170" width="50" height="35" as="geometry">
            <mxRectangle width="50" height="35" as="alternateBounds" />
          </mxGeometry>
        </mxCell>
        <mxCell id="CnCBfWLQsgVYcmkU2KY1-17" value="FK2" style="shape=partialRectangle;overflow=hidden;connectable=0;fillColor=none;top=0;left=0;bottom=0;right=0;align=left;spacingLeft=6;perimeterSpacing=4;strokeColor=default;strokeWidth=0;" vertex="1" parent="CnCBfWLQsgVYcmkU2KY1-10">
          <mxGeometry x="220" width="130" height="35" as="geometry">
            <mxRectangle width="130" height="35" as="alternateBounds" />
          </mxGeometry>
        </mxCell>
        <mxCell id="CnCBfWLQsgVYcmkU2KY1-24" style="shape=partialRectangle;collapsible=0;dropTarget=0;pointerEvents=0;fillColor=none;points=[[0,0.5],[1,0.5]];portConstraint=eastwest;top=0;left=0;right=0;bottom=0;" vertex="1" parent="BaDLSpwHCjFPU6KFAHDN-124">
          <mxGeometry y="210" width="350" height="35" as="geometry" />
        </mxCell>
        <mxCell id="CnCBfWLQsgVYcmkU2KY1-25" value="DisciplineId" style="shape=partialRectangle;overflow=hidden;connectable=0;fillColor=none;top=0;left=0;bottom=0;right=0;strokeColor=inherit;fontStyle=0" vertex="1" parent="CnCBfWLQsgVYcmkU2KY1-24">
          <mxGeometry width="170" height="35" as="geometry">
            <mxRectangle width="170" height="35" as="alternateBounds" />
          </mxGeometry>
        </mxCell>
        <mxCell id="CnCBfWLQsgVYcmkU2KY1-26" value="int" style="shape=partialRectangle;overflow=hidden;connectable=0;fillColor=none;top=0;left=0;bottom=0;right=0;align=left;spacingLeft=6;perimeterSpacing=4;strokeColor=default;strokeWidth=0;" vertex="1" parent="CnCBfWLQsgVYcmkU2KY1-24">
          <mxGeometry x="170" width="50" height="35" as="geometry">
            <mxRectangle width="50" height="35" as="alternateBounds" />
          </mxGeometry>
        </mxCell>
        <mxCell id="CnCBfWLQsgVYcmkU2KY1-27" value="FK3" style="shape=partialRectangle;overflow=hidden;connectable=0;fillColor=none;top=0;left=0;bottom=0;right=0;align=left;spacingLeft=6;perimeterSpacing=4;strokeColor=default;strokeWidth=0;" vertex="1" parent="CnCBfWLQsgVYcmkU2KY1-24">
          <mxGeometry x="220" width="130" height="35" as="geometry">
            <mxRectangle width="130" height="35" as="alternateBounds" />
          </mxGeometry>
        </mxCell>
        <mxCell id="BaDLSpwHCjFPU6KFAHDN-172" value="Teacher" style="shape=table;startSize=30;container=1;collapsible=1;childLayout=tableLayout;fixedRows=0;rowLines=0;fontStyle=1;align=center;resizeLast=1;columnLines=0;rounded=0;" parent="1" vertex="1">
          <mxGeometry x="-130" y="140" width="330" height="62.00000000000023" as="geometry" />
        </mxCell>
        <mxCell id="BaDLSpwHCjFPU6KFAHDN-173" style="shape=partialRectangle;collapsible=0;dropTarget=0;pointerEvents=0;fillColor=none;points=[[0,0.5],[1,0.5]];portConstraint=eastwest;top=0;left=0;right=0;bottom=0;" parent="BaDLSpwHCjFPU6KFAHDN-172" vertex="1">
          <mxGeometry y="30" width="330" height="32" as="geometry" />
        </mxCell>
        <mxCell id="BaDLSpwHCjFPU6KFAHDN-174" value="TeacherId" style="shape=partialRectangle;overflow=hidden;connectable=0;fillColor=none;top=0;left=0;bottom=0;right=0;fontStyle=4" parent="BaDLSpwHCjFPU6KFAHDN-173" vertex="1">
          <mxGeometry width="170" height="32" as="geometry">
            <mxRectangle width="170" height="32" as="alternateBounds" />
          </mxGeometry>
        </mxCell>
        <mxCell id="BaDLSpwHCjFPU6KFAHDN-175" value="int" style="shape=partialRectangle;overflow=hidden;connectable=0;fillColor=none;top=0;left=0;bottom=0;right=0;align=left;spacingLeft=6;" parent="BaDLSpwHCjFPU6KFAHDN-173" vertex="1">
          <mxGeometry x="170" width="80" height="32" as="geometry">
            <mxRectangle width="80" height="32" as="alternateBounds" />
          </mxGeometry>
        </mxCell>
        <mxCell id="CnCBfWLQsgVYcmkU2KY1-1" value="FK1" style="shape=partialRectangle;overflow=hidden;connectable=0;fillColor=none;top=0;left=0;bottom=0;right=0;align=left;spacingLeft=6;" vertex="1" parent="BaDLSpwHCjFPU6KFAHDN-173">
          <mxGeometry x="250" width="80" height="32" as="geometry">
            <mxRectangle width="80" height="32" as="alternateBounds" />
          </mxGeometry>
        </mxCell>
        <mxCell id="CnCBfWLQsgVYcmkU2KY1-5" style="edgeStyle=orthogonalEdgeStyle;rounded=0;orthogonalLoop=1;jettySize=auto;html=1;entryX=0.652;entryY=1.015;entryDx=0;entryDy=0;entryPerimeter=0;" edge="1" parent="1" source="BaDLSpwHCjFPU6KFAHDN-182" target="BaDLSpwHCjFPU6KFAHDN-8">
          <mxGeometry relative="1" as="geometry" />
        </mxCell>
        <mxCell id="CnCBfWLQsgVYcmkU2KY1-6" value="FK1" style="edgeLabel;html=1;align=center;verticalAlign=middle;resizable=0;points=[];" vertex="1" connectable="0" parent="CnCBfWLQsgVYcmkU2KY1-5">
          <mxGeometry x="-0.2739" y="-2" relative="1" as="geometry">
            <mxPoint y="1" as="offset" />
          </mxGeometry>
        </mxCell>
        <mxCell id="CnCBfWLQsgVYcmkU2KY1-22" style="edgeStyle=orthogonalEdgeStyle;rounded=0;orthogonalLoop=1;jettySize=auto;html=1;" edge="1" parent="1" source="BaDLSpwHCjFPU6KFAHDN-182" target="BaDLSpwHCjFPU6KFAHDN-27">
          <mxGeometry relative="1" as="geometry" />
        </mxCell>
        <mxCell id="CnCBfWLQsgVYcmkU2KY1-23" value="FK2" style="edgeLabel;html=1;align=center;verticalAlign=middle;resizable=0;points=[];" vertex="1" connectable="0" parent="CnCBfWLQsgVYcmkU2KY1-22">
          <mxGeometry x="0.0079" y="-1" relative="1" as="geometry">
            <mxPoint as="offset" />
          </mxGeometry>
        </mxCell>
        <mxCell id="BaDLSpwHCjFPU6KFAHDN-182" value="Student" style="shape=table;startSize=30;container=1;collapsible=1;childLayout=tableLayout;fixedRows=0;rowLines=0;fontStyle=1;align=center;resizeLast=1;columnLines=0;rounded=0;" parent="1" vertex="1">
          <mxGeometry x="-460" y="320" width="330" height="94.00000000000023" as="geometry" />
        </mxCell>
        <mxCell id="BaDLSpwHCjFPU6KFAHDN-183" style="shape=partialRectangle;collapsible=0;dropTarget=0;pointerEvents=0;fillColor=none;points=[[0,0.5],[1,0.5]];portConstraint=eastwest;top=0;left=0;right=0;bottom=0;" parent="BaDLSpwHCjFPU6KFAHDN-182" vertex="1">
          <mxGeometry y="30" width="330" height="32" as="geometry" />
        </mxCell>
        <mxCell id="BaDLSpwHCjFPU6KFAHDN-184" value="StudentId" style="shape=partialRectangle;overflow=hidden;connectable=0;fillColor=none;top=0;left=0;bottom=0;right=0;fontStyle=4" parent="BaDLSpwHCjFPU6KFAHDN-183" vertex="1">
          <mxGeometry width="170" height="32" as="geometry">
            <mxRectangle width="170" height="32" as="alternateBounds" />
          </mxGeometry>
        </mxCell>
        <mxCell id="BaDLSpwHCjFPU6KFAHDN-185" value="int " style="shape=partialRectangle;overflow=hidden;connectable=0;fillColor=none;top=0;left=0;bottom=0;right=0;align=left;spacingLeft=6;" parent="BaDLSpwHCjFPU6KFAHDN-183" vertex="1">
          <mxGeometry x="170" width="80" height="32" as="geometry">
            <mxRectangle width="80" height="32" as="alternateBounds" />
          </mxGeometry>
        </mxCell>
        <mxCell id="CnCBfWLQsgVYcmkU2KY1-4" value="FK1" style="shape=partialRectangle;overflow=hidden;connectable=0;fillColor=none;top=0;left=0;bottom=0;right=0;align=left;spacingLeft=6;" vertex="1" parent="BaDLSpwHCjFPU6KFAHDN-183">
          <mxGeometry x="250" width="80" height="32" as="geometry">
            <mxRectangle width="80" height="32" as="alternateBounds" />
          </mxGeometry>
        </mxCell>
        <mxCell id="CnCBfWLQsgVYcmkU2KY1-18" style="shape=partialRectangle;collapsible=0;dropTarget=0;pointerEvents=0;fillColor=none;points=[[0,0.5],[1,0.5]];portConstraint=eastwest;top=0;left=0;right=0;bottom=0;" vertex="1" parent="BaDLSpwHCjFPU6KFAHDN-182">
          <mxGeometry y="62" width="330" height="32" as="geometry" />
        </mxCell>
        <mxCell id="CnCBfWLQsgVYcmkU2KY1-19" value="GroupId" style="shape=partialRectangle;overflow=hidden;connectable=0;fillColor=none;top=0;left=0;bottom=0;right=0;fontStyle=0" vertex="1" parent="CnCBfWLQsgVYcmkU2KY1-18">
          <mxGeometry width="170" height="32" as="geometry">
            <mxRectangle width="170" height="32" as="alternateBounds" />
          </mxGeometry>
        </mxCell>
        <mxCell id="CnCBfWLQsgVYcmkU2KY1-20" value="int " style="shape=partialRectangle;overflow=hidden;connectable=0;fillColor=none;top=0;left=0;bottom=0;right=0;align=left;spacingLeft=6;" vertex="1" parent="CnCBfWLQsgVYcmkU2KY1-18">
          <mxGeometry x="170" width="80" height="32" as="geometry">
            <mxRectangle width="80" height="32" as="alternateBounds" />
          </mxGeometry>
        </mxCell>
        <mxCell id="CnCBfWLQsgVYcmkU2KY1-21" value="FK2" style="shape=partialRectangle;overflow=hidden;connectable=0;fillColor=none;top=0;left=0;bottom=0;right=0;align=left;spacingLeft=6;" vertex="1" parent="CnCBfWLQsgVYcmkU2KY1-18">
          <mxGeometry x="250" width="80" height="32" as="geometry">
            <mxRectangle width="80" height="32" as="alternateBounds" />
          </mxGeometry>
        </mxCell>
        <mxCell id="CnCBfWLQsgVYcmkU2KY1-2" style="edgeStyle=orthogonalEdgeStyle;rounded=0;orthogonalLoop=1;jettySize=auto;html=1;entryX=1;entryY=0.143;entryDx=0;entryDy=0;entryPerimeter=0;" edge="1" parent="1" source="BaDLSpwHCjFPU6KFAHDN-173" target="C-vyLk0tnHw3VtMMgP7b-27">
          <mxGeometry relative="1" as="geometry" />
        </mxCell>
        <mxCell id="CnCBfWLQsgVYcmkU2KY1-3" value="FK1" style="edgeLabel;html=1;align=center;verticalAlign=middle;resizable=0;points=[];" vertex="1" connectable="0" parent="CnCBfWLQsgVYcmkU2KY1-2">
          <mxGeometry x="-0.225" y="-3" relative="1" as="geometry">
            <mxPoint as="offset" />
          </mxGeometry>
        </mxCell>
        <mxCell id="CnCBfWLQsgVYcmkU2KY1-37" style="edgeStyle=orthogonalEdgeStyle;rounded=0;orthogonalLoop=1;jettySize=auto;html=1;entryX=1;entryY=0.5;entryDx=0;entryDy=0;" edge="1" parent="1" source="CnCBfWLQsgVYcmkU2KY1-28" target="BaDLSpwHCjFPU6KFAHDN-183">
          <mxGeometry relative="1" as="geometry" />
        </mxCell>
        <mxCell id="CnCBfWLQsgVYcmkU2KY1-44" value="FK1" style="edgeLabel;html=1;align=center;verticalAlign=middle;resizable=0;points=[];" vertex="1" connectable="0" parent="CnCBfWLQsgVYcmkU2KY1-37">
          <mxGeometry x="-0.044" y="-2" relative="1" as="geometry">
            <mxPoint as="offset" />
          </mxGeometry>
        </mxCell>
        <mxCell id="CnCBfWLQsgVYcmkU2KY1-45" style="edgeStyle=orthogonalEdgeStyle;rounded=0;orthogonalLoop=1;jettySize=auto;html=1;entryX=0.999;entryY=0.348;entryDx=0;entryDy=0;entryPerimeter=0;" edge="1" parent="1" source="BaDLSpwHCjFPU6KFAHDN-133" target="BaDLSpwHCjFPU6KFAHDN-28">
          <mxGeometry relative="1" as="geometry" />
        </mxCell>
        <mxCell id="CnCBfWLQsgVYcmkU2KY1-46" value="FK1" style="edgeLabel;html=1;align=center;verticalAlign=middle;resizable=0;points=[];" vertex="1" connectable="0" parent="CnCBfWLQsgVYcmkU2KY1-45">
          <mxGeometry x="-0.0905" relative="1" as="geometry">
            <mxPoint as="offset" />
          </mxGeometry>
        </mxCell>
        <mxCell id="CnCBfWLQsgVYcmkU2KY1-48" style="edgeStyle=orthogonalEdgeStyle;rounded=0;orthogonalLoop=1;jettySize=auto;html=1;exitX=0;exitY=0.5;exitDx=0;exitDy=0;entryX=0.305;entryY=1.031;entryDx=0;entryDy=0;entryPerimeter=0;" edge="1" parent="1" source="BaDLSpwHCjFPU6KFAHDN-167" target="BaDLSpwHCjFPU6KFAHDN-173">
          <mxGeometry relative="1" as="geometry" />
        </mxCell>
        <mxCell id="CnCBfWLQsgVYcmkU2KY1-49" value="FK2" style="edgeLabel;html=1;align=center;verticalAlign=middle;resizable=0;points=[];" vertex="1" connectable="0" parent="CnCBfWLQsgVYcmkU2KY1-48">
          <mxGeometry x="0.6749" y="-2" relative="1" as="geometry">
            <mxPoint as="offset" />
          </mxGeometry>
        </mxCell>
      </root>
    </mxGraphModel>
  </diagram>
</mxfile>
